<svg width="106" height="16" viewBox="0 0 106 16" fill="none" xmlns="http://www.w3.org/2000/svg">
<mask id="mask0_1_2" style="mask-type:luminance" maskUnits="userSpaceOnUse" x="0" y="0" width="106" height="16">
<path d="M105.6 0H0V16H105.6V0Z" fill="white"/>
</mask>
<g mask="url(#mask0_1_2)">
<path d="M4.30268 0.90214L6.17485 7.88919V0.207477C6.3233 0.172835 6.47335 0.142326 6.62486 0.116079V7.88991L8.73056 0.03125C8.88232 0.0449878 9.03288 0.0629633 9.182 0.0850566L7.05934 8.00706L11.2787 0.6989C11.4162 0.760737 11.5515 0.826348 11.6847 0.895588L7.44966 8.23098L13.4958 2.18485C13.6048 2.28793 13.7109 2.39405 13.814 2.50306L7.76696 8.5501L15.1032 4.31448C15.1725 4.44769 15.238 4.5831 15.2998 4.72057L7.99354 8.9389L15.9134 6.81676C15.9354 6.96595 15.9534 7.11648 15.9671 7.26823L8.10856 9.37394H15.8822C15.8559 9.52546 15.8254 9.67546 15.7907 9.82394H8.10736L15.0958 11.6965C15.024 11.8339 14.9484 11.969 14.869 12.1015L7.99288 10.2591L13.736 13.5749C13.6273 13.6867 13.5154 13.7954 13.4002 13.9007L7.76838 10.6491L12.0299 14.9107C11.8951 14.9895 11.7578 15.0643 11.6182 15.1353L7.44972 10.9668L10.181 15.6975C10.0314 15.7397 9.88008 15.7778 9.72712 15.8115L7.05962 11.1911L8.34576 15.991C8.23112 15.9959 8.11584 15.9983 8 15.9983C7.96046 15.9983 7.92099 15.998 7.88159 15.9975L6.62485 11.3073V15.8806C6.47334 15.8543 6.3233 15.8239 6.17485 15.7892V11.308L5.06675 15.4435C4.92542 15.3878 4.78605 15.3281 4.64878 15.2647L5.74002 11.1922L3.69154 14.7403C3.56472 14.659 3.44034 14.5743 3.31854 14.4863L5.35091 10.9661L2.50472 13.8123C2.39571 13.7092 2.28959 13.6031 2.18651 13.4941L5.03181 10.6488L1.51265 12.6806C1.42459 12.5588 1.33989 12.4344 1.25866 12.3076L4.80839 10.2582L0.733819 11.3499C0.670399 11.2127 0.610754 11.0734 0.555017 10.932L4.69048 9.82394H0.20924C0.174589 9.67546 0.144071 9.52546 0.117816 9.37394H4.68927L0.000871872 8.1177C0.000291296 8.07794 0 8.03818 0 7.99834C0 7.88281 0.0024489 7.76785 0.00729763 7.65352L4.80774 8.93978L0.186771 6.27188C0.220418 6.11891 0.258444 5.96759 0.300708 5.81804L5.03322 8.55034L0.863032 4.38017C0.933984 4.2405 1.0089 4.1032 1.08766 3.9684L5.35097 8.2317L2.0981 2.59757C2.20342 2.48253 2.31208 2.37058 2.4239 2.26187L5.74029 8.00602L3.89756 1.12888C4.03016 1.04952 4.16525 0.973892 4.30268 0.90214Z" fill="white"/>
<path d="M23.5632 8.92985L20.1328 3.83545H21.6688L24.216 7.66265L26.7504 3.83545H28.2736L24.8432 8.92985V12.7955H23.5632V8.92985ZM30.8052 12.9747C30.1908 12.9747 29.6404 12.8381 29.154 12.5651C28.6762 12.292 28.3007 11.908 28.0276 11.4131C27.7631 10.9181 27.6308 10.3506 27.6308 9.71065C27.6308 9.07065 27.7631 8.50745 28.0276 8.02105C28.3007 7.52611 28.6762 7.14211 29.154 6.86905C29.6404 6.59599 30.1908 6.45945 30.8052 6.45945C31.4282 6.45945 31.9786 6.59599 32.4564 6.86905C32.9343 7.14211 33.3055 7.52611 33.57 8.02105C33.8431 8.50745 33.9796 9.07065 33.9796 9.71065C33.9796 10.3592 33.8431 10.9309 33.57 11.4258C33.3055 11.9122 32.9343 12.292 32.4564 12.5651C31.9786 12.8381 31.4282 12.9747 30.8052 12.9747ZM28.9108 9.71065C28.9108 10.3506 29.0858 10.8669 29.4356 11.2594C29.7855 11.652 30.242 11.8483 30.8052 11.8483C31.377 11.8483 31.8335 11.652 32.1748 11.2594C32.5247 10.8669 32.6996 10.3506 32.6996 9.71065C32.6996 9.07921 32.5247 8.56721 32.1748 8.17465C31.8335 7.78211 31.377 7.58585 30.8052 7.58585C30.242 7.58585 29.7855 7.78211 29.4356 8.17465C29.0858 8.56721 28.9108 9.07921 28.9108 9.71065ZM37.8313 12.9747C37.0719 12.9747 36.4788 12.7485 36.0521 12.2963C35.6255 11.844 35.4121 11.1955 35.4121 10.3507V6.63865H36.6537V10.2355C36.6537 10.7731 36.7732 11.1784 37.0121 11.4514C37.2596 11.716 37.6095 11.8483 38.0617 11.8483C38.5311 11.8483 38.9023 11.6989 39.1753 11.4002C39.4569 11.093 39.5977 10.692 39.5977 10.197V6.63865H40.8393V12.7955H39.7385V12.0914C39.5423 12.3816 39.2777 12.6034 38.9449 12.757C38.6121 12.9021 38.2409 12.9747 37.8313 12.9747ZM42.7407 6.63865H43.8415V7.63705C43.9183 7.32131 44.0719 7.07811 44.3023 6.90745C44.5327 6.72825 44.8271 6.63865 45.1855 6.63865H46.3631V7.72665H45.0703C44.6948 7.72665 44.4175 7.83331 44.2383 8.04665C44.0676 8.25145 43.9823 8.56721 43.9823 8.99385V12.7955H42.7407V6.63865ZM54.5789 12.9747C53.7768 12.9747 53.0728 12.7997 52.4669 12.4499C51.8611 12.1 51.3917 11.5795 51.0589 10.8882C50.7261 10.1885 50.5597 9.33521 50.5597 8.32825C50.5597 6.81785 50.9181 5.66159 51.6349 4.85945C52.3517 4.05731 53.3416 3.65625 54.6045 3.65625C55.5773 3.65625 56.3752 3.92505 56.9981 4.46265C57.6296 5.00025 58.0136 5.74691 58.1501 6.70265H56.8061C56.7123 6.12239 56.4648 5.67011 56.0637 5.34585C55.6627 5.01305 55.1763 4.84665 54.6045 4.84665C53.7512 4.84665 53.0813 5.13251 52.5949 5.70425C52.1171 6.27599 51.8781 7.14211 51.8781 8.30265C51.8781 9.44609 52.1213 10.3123 52.6077 10.9011C53.1027 11.4899 53.7597 11.7843 54.5789 11.7843C55.1848 11.7843 55.6797 11.6051 56.0637 11.2467C56.4563 10.8797 56.7037 10.3976 56.8061 9.80025H58.1373C57.9752 10.7645 57.5869 11.5368 56.9725 12.1171C56.3581 12.6888 55.5603 12.9747 54.5789 12.9747ZM62.3803 12.9747C61.7659 12.9747 61.2155 12.8381 60.729 12.5651C60.2511 12.292 59.8757 11.908 59.6027 11.4131C59.3381 10.9181 59.2059 10.3506 59.2059 9.71065C59.2059 9.07065 59.3381 8.50745 59.6027 8.02105C59.8757 7.52611 60.2511 7.14211 60.729 6.86905C61.2155 6.59599 61.7659 6.45945 62.3803 6.45945C63.0031 6.45945 63.5535 6.59599 64.0315 6.86905C64.5093 7.14211 64.8805 7.52611 65.1451 8.02105C65.4181 8.50745 65.5547 9.07065 65.5547 9.71065C65.5547 10.3592 65.4181 10.9309 65.1451 11.4258C64.8805 11.9122 64.5093 12.292 64.0315 12.5651C63.5535 12.8381 63.0031 12.9747 62.3803 12.9747ZM60.4859 9.71065C60.4859 10.3506 60.6607 10.8669 61.0107 11.2594C61.3605 11.652 61.8171 11.8483 62.3803 11.8483C62.9519 11.8483 63.4085 11.652 63.7499 11.2594C64.0997 10.8669 64.2747 10.3506 64.2747 9.71065C64.2747 9.07921 64.0997 8.56721 63.7499 8.17465C63.4085 7.78211 62.9519 7.58585 62.3803 7.58585C61.8171 7.58585 61.3605 7.78211 61.0107 8.17465C60.6607 8.56721 60.4859 9.07921 60.4859 9.71065ZM67.1032 6.63865H68.204V7.39385C68.5539 6.77091 69.1128 6.45945 69.8808 6.45945C70.299 6.45945 70.6616 6.55759 70.9688 6.75385C71.276 6.94159 71.5022 7.21039 71.6472 7.56025C72.0398 6.82639 72.6542 6.45945 73.4904 6.45945C74.1987 6.45945 74.7406 6.66851 75.116 7.08665C75.5 7.49625 75.692 8.08505 75.692 8.85305V12.7955H74.4632V8.91705C74.4632 8.49041 74.3608 8.16185 74.156 7.93145C73.9598 7.70105 73.6654 7.58585 73.2728 7.58585C72.9059 7.58585 72.603 7.71385 72.364 7.96985C72.1336 8.22585 72.0184 8.55441 72.0184 8.95545V12.7955H70.7768V8.91705C70.7768 8.49041 70.6744 8.16185 70.4696 7.93145C70.2734 7.70105 69.9875 7.58585 69.612 7.58585C69.2366 7.58585 68.9294 7.71385 68.6904 7.96985C68.46 8.22585 68.3448 8.55441 68.3448 8.95545V12.7955H67.1032V6.63865ZM77.5532 6.63865H78.654V7.50905C78.8503 7.17625 79.1362 6.92025 79.5116 6.74105C79.8871 6.55331 80.3136 6.45945 80.792 6.45945C81.372 6.45945 81.884 6.59599 82.328 6.86905C82.78 7.14211 83.1296 7.52611 83.3776 8.02105C83.6248 8.50745 83.7488 9.07065 83.7488 9.71065C83.7488 10.3592 83.6248 10.9309 83.3776 11.4258C83.1296 11.9122 82.78 12.292 82.328 12.5651C81.884 12.8381 81.372 12.9747 80.792 12.9747C80.348 12.9747 79.951 12.8936 79.6012 12.7315C79.2598 12.5693 78.9911 12.3389 78.7948 12.0402V15.0994H77.5532V6.63865ZM78.7692 9.71065C78.7692 10.3506 78.9356 10.8669 79.2684 11.2594C79.6098 11.652 80.0576 11.8483 80.6128 11.8483C81.1672 11.8483 81.6152 11.652 81.9568 11.2594C82.2976 10.8669 82.4688 10.3506 82.4688 9.71065C82.4688 9.07921 82.2976 8.56721 81.9568 8.17465C81.6152 7.78211 81.1672 7.58585 80.6128 7.58585C80.0576 7.58585 79.6098 7.78211 79.2684 8.17465C78.9356 8.56721 78.7692 9.07921 78.7692 9.71065ZM87.1072 12.9747C86.3992 12.9747 85.836 12.804 85.4176 12.4626C85 12.1128 84.7904 11.6435 84.7904 11.0547C84.7904 10.4829 84.9824 10.0221 85.3664 9.67225C85.7504 9.31385 86.3096 9.11329 87.0432 9.07065L88.912 8.96825V8.62265C88.912 8.22161 88.8096 7.93145 88.6048 7.75225C88.4088 7.57305 88.0976 7.48345 87.6704 7.48345C87.2528 7.48345 86.9368 7.55171 86.7232 7.68825C86.5184 7.81625 86.3904 8.03809 86.3392 8.35385H85.0976C85.1664 7.72239 85.4176 7.24879 85.8528 6.93305C86.2968 6.61731 86.9328 6.45945 87.76 6.45945C88.5024 6.45945 89.0744 6.64291 89.4752 7.00985C89.8848 7.36825 90.0896 7.88451 90.0896 8.55865V11.5666C90.0896 11.7032 90.1584 11.7715 90.2944 11.7715H90.8192V12.7955H89.8208C89.608 12.7955 89.4416 12.74 89.3216 12.6291C89.2112 12.5181 89.1552 12.3602 89.1552 12.1554V11.9762C88.976 12.292 88.7072 12.5395 88.3488 12.7186C87.9992 12.8893 87.5856 12.9747 87.1072 12.9747ZM86.032 11.0163C86.032 11.2979 86.1392 11.524 86.352 11.6946C86.5744 11.8653 86.8728 11.9507 87.248 11.9507C87.76 11.9507 88.1656 11.8099 88.464 11.5283C88.7632 11.2381 88.912 10.837 88.912 10.325V9.92825L87.1968 10.0563C86.8128 10.0819 86.5232 10.1842 86.3264 10.3635C86.1304 10.5341 86.032 10.7517 86.032 11.0163ZM92.128 6.63865H93.2288V7.44505C93.408 7.12079 93.6688 6.87759 94.0096 6.71545C94.36 6.54479 94.748 6.45945 95.1744 6.45945C95.9424 6.45945 96.544 6.68985 96.9792 7.15065C97.4144 7.60291 97.632 8.24721 97.632 9.08345V12.7955H96.3904V9.19865C96.3904 8.66105 96.2624 8.26001 96.0064 7.99545C95.7592 7.72239 95.4048 7.58585 94.944 7.58585C94.4664 7.58585 94.0824 7.73945 93.792 8.04665C93.5104 8.34529 93.3696 8.74209 93.3696 9.23705V12.7955H92.128V6.63865ZM98.6136 13.9859H99.7144C99.9192 13.9859 100.077 13.9517 100.188 13.8835C100.307 13.8152 100.401 13.7 100.47 13.5378L101.007 12.373L98.4216 6.63865H99.8424L101.66 10.9778L103.478 6.63865H104.873L101.494 14.1522C101.348 14.485 101.165 14.724 100.943 14.869C100.721 15.0226 100.406 15.0994 99.996 15.0994H98.6136V13.9859Z" fill="white"/>
</g>
</svg>
